<svg width="59" height="68" viewBox="0 0 59 68" fill="none" xmlns="http://www.w3.org/2000/svg">
<path d="M54.5091 4.7261C54.5091 4.7261 51.0085 12.3679 49.2082 16.0359C44.5203 13.8401 39.3942 12.7889 34.2374 12.9657C29.0807 13.1426 24.0355 14.5428 19.5032 17.0548C13.2022 20.9267 7.90132 27.9571 7.50125 35.5989C7.30122 40.4896 9.50158 46.0936 8.70145 51.1881C8.54572 53.8464 7.86538 56.4455 6.70112 58.8299C5.10085 61.479 3.20053 63.7206 0 63.9244C0.6001 63.1093 5.70095 60.6639 3.70062 49.3541C2.90048 44.8709 -3.20053 33.7648 2.70045 19.9078C8.20137 7.1409 31.3052 -7.80641 54.5091 4.7261Z" fill="#18453B"/>
<path d="M27.9047 26.9381C31.021 25.9842 34.3228 25.8441 37.5063 26.5306C40.3498 26.9193 43.0384 28.0796 45.2906 29.8901C47.5429 31.7006 49.276 34.0946 50.3084 36.8215C52.5088 42.6292 54.2091 47.1124 58.2097 52.0031C58.4098 52.2069 52.1087 50.9842 52.1087 50.9842C53.709 39.6744 43.2072 39.2668 40.1067 43.3425C41.2504 44.5382 42.6462 45.4532 44.1885 46.0181C45.7307 46.583 47.3789 46.783 49.0082 46.6029C48.4081 57.9128 51.4086 67.9999 51.2086 67.9999C48.8082 67.5924 37.2062 60.7657 33.7056 57.709C28.8048 58.5241 24.8042 60.3581 19.1032 61.1733C18.9032 61.1733 20.1034 56.8939 19.9033 54.7542C19.9033 48.7426 15.4026 43.2406 18.7031 36.0064C20.6035 31.6251 23.4039 28.5684 27.9047 26.9381V26.9381Z" fill="#18453B"/>
<path d="M32.0054 23.372H32.8055C32.9119 22.3746 33.2148 21.4094 33.696 20.534C34.1772 19.6586 34.8268 18.8911 35.606 18.2775C37.3491 16.9037 39.5038 16.184 41.707 16.2397C38.6972 15.3047 35.5277 15.0269 32.4054 15.4246L32.0054 23.372Z" fill="#18453B"/>
<path d="M10.2018 33.6323C9.64452 36.3483 9.57674 39.1448 10.0017 41.8854C10.2513 40.2321 10.9434 38.6809 12.0021 37.4023C13.0506 36.3719 14.446 35.7887 15.9027 35.772C15.9027 35.772 16.3028 34.7531 16.1027 34.7531C16.1027 34.6512 10.2018 33.6323 10.2018 33.6323Z" fill="#18453B"/>
<path d="M16.7029 33.0515C16.9391 32.5927 17.1398 32.1158 17.303 31.6251L11.202 29.1797C10.8753 29.9732 10.6078 30.7906 10.4019 31.6251L16.7029 33.0515Z" fill="#18453B"/>
<path d="M18.3032 30.8099L19.3033 29.5873L13.6024 25.3079C12.9782 26.0182 12.5018 26.85 12.2021 27.7532C12.3022 27.7532 18.3032 30.8099 18.3032 30.8099Z" fill="#18453B"/>
<path d="M20.4033 28.3647L21.6035 27.142L16.7027 21.6399C15.9767 22.3299 15.3076 23.0796 14.7024 23.8815L20.4033 28.3647Z" fill="#18453B"/>
<path d="M22.8039 26.5L24.2041 25.6849L20.5035 19.062C19.5724 19.491 18.6986 20.0388 17.9031 20.6923L22.8039 26.5Z" fill="#18453B"/>
<path d="M25.5035 25.0022L27.1035 24.3909L25.1035 16.9529C24.0828 17.3055 23.0813 17.7136 22.1035 18.1756L25.5035 25.0022Z" fill="#18453B"/>
<path d="M28.5044 23.9833L30.1044 23.5757L30.3044 15.5264C30.3044 15.5264 28.5044 15.9339 26.8044 16.3415C26.9044 16.4434 28.5044 23.9833 28.5044 23.9833Z" fill="#18453B"/>
</svg>
